PathFileType  4	(X/Y/Z) C:\Users\antoi\Documents\MyRepositories\mobilecap\ResultsAnalysis
DataRate	CameraRate	NumFrames	NumMarkers	Units	OrigDataRate	OrigDataStartFrame	OrigNumFrames
100.0	100.0	4	51	mm	100.0	52	136
Frame#	Time	r_knee			r_shank_antsup			r_ankle			r_calc			r_5meta			r_toe			L_knee			L_shank_antsup			L_ankle			L_calc			L_5meta			L_toe			r_sh2			r_sh3			r_sh4			L_sh2			L_sh3			r_thigh1			r_thigh2			r_thigh3			r_thigh4			r_thigh5			L_thigh1			L_thigh2			L_thigh3			L_thigh4			r.ASIS			r.PSIS			L.ASIS			L.PSIS			C7			R_Shoulder			L_Shoulder			R_Sternum			L_Sternum			R_humerus			R_elbow_med			R_elbow_lat			R_forearm			R_wrist_radius			R_wrist_ulna			L_humerus			L_elbow_med			L_elbow_lat			L_forearm			L_wrist_radius			L_wrist_ulna			R_HJC			L_HJC			R_HJC_reg			L_HJC_reg			
		X1	Y1	Z1	X2	Y2	Z2	X3	Y3	Z3	X4	Y4	Z4	X5	Y5	Z5	X6	Y6	Z6	X7	Y7	Z7	X8	Y8	Z8	X9	Y9	Z9	X10	Y10	Z10	X11	Y11	Z11	X12	Y12	Z12	X13	Y13	Z13	X14	Y14	Z14	X15	Y15	Z15	X16	Y16	Z16	X17	Y17	Z17	X18	Y18	Z18	X19	Y19	Z19	X20	Y20	Z20	X21	Y21	Z21	X22	Y22	Z22	X23	Y23	Z23	X24	Y24	Z24	X25	Y25	Z25	X26	Y26	Z26	X27	Y27	Z27	X28	Y28	Z28	X29	Y29	Z29	X30	Y30	Z30	X31	Y31	Z31	X32	Y32	Z32	X33	Y33	Z33	X34	Y34	Z34	X35	Y35	Z35	X36	Y36	Z36	X37	Y37	Z37	X38	Y38	Z38	X39	Y39	Z39	X40	Y40	Z40	X41	Y41	Z41	X42	Y42	Z42	X43	Y43	Z43	X44	Y44	Z44	X45	Y45	Z45	X46	Y46	Z46	X47	Y47	Z47	X48	Y48	Z48	X49	Y49	Z49	X50	Y50	Z50	X51	Y51	Z51	

52	0.51000000	274.01500	538.29350	-75.59059	265.50210	407.06934	-93.88608	83.23330	112.98814	-147.48089	18.90290	88.49865	-202.34833	205.00502	29.56961	-97.36582	251.48192	56.11162	-164.69723	547.28219	526.93395	-361.81170	625.81374	457.71828	-350.28782	723.84942	108.75877	-334.82654	686.68128	59.49761	-271.78140	879.64476	112.60046	-374.05296	897.87593	156.76150	-313.03004	236.12873	300.84955	-123.61707	196.26768	414.57494	-58.78875	169.38049	301.42071	-71.13158	551.06303	415.74793	-380.41344	628.14191	322.02488	-394.41169	441.08774	736.57433	-58.85293	415.45376	629.15574	-82.58246	365.83969	608.99274	-40.94555	342.77959	746.17185	-1.96870	317.82151	635.94154	-33.44967	532.07695	783.78664	-381.27262	584.52236	657.06376	-365.84339	436.15537	738.07625	-417.83306	488.18491	611.85557	-394.97111	463.60890	1023.91526	-59.70777	262.81594	1057.44249	-161.10885	478.53838	1009.93459	-324.28723	264.16595	1051.41345	-258.43246	340.13985	1556.72387	-188.89367	420.32369	1479.14850	-12.79084	384.71727	1506.43470	-373.54994	476.79744	1473.06416	-179.69012	469.82811	1470.56118	-227.63608	450.37852	1314.57331	57.83908	389.80488	1084.42974	37.39992	416.42632	1113.69254	110.38347	547.43056	998.07051	103.60715	613.41563	896.26109	105.95202	587.83894	878.22073	136.19973	329.61305	1344.50930	-462.74155	213.64129	1157.19913	-402.68310	223.90503	1173.07773	-482.46654	275.22225	1014.37484	-504.76293	257.88746	899.83167	-539.96127	216.29394	911.66826	-562.57701	380.42137	944.01003	-97.29133	396.13633	921.68240	-308.93798	392.75382	945.77347	-93.62028	395.17095	934.94557	-268.39519	
53	0.52000000	284.37609	536.91724	-74.70836	273.68733	405.57623	-93.05122	84.87679	115.61787	-146.87723	19.92182	92.06694	-201.56890	205.14542	28.95694	-97.12203	252.11462	55.68292	-164.34909	564.95706	526.77707	-361.23229	641.92215	455.16173	-347.82294	729.35580	104.57185	-331.69457	689.91929	56.13603	-269.68058	886.07011	104.29413	-367.99810	904.23154	147.07485	-306.22514	242.01231	300.07827	-122.83468	204.46725	414.52879	-58.02470	175.25339	302.12817	-70.42910	566.76318	415.22114	-380.01074	641.31877	319.39807	-392.20028	452.78035	734.36049	-58.27715	426.70254	626.99870	-81.55821	376.93729	607.29906	-39.85245	354.32042	744.72207	-1.77304	328.81515	634.41166	-32.89370	548.55563	784.86355	-380.29847	602.38967	658.81065	-364.17755	453.50332	737.68590	-417.76972	507.09349	612.22121	-394.58193	477.12064	1021.49108	-59.58446	276.40577	1055.39784	-161.01561	492.29664	1008.20024	-324.40673	277.85558	1049.57679	-258.40797	353.63256	1554.87153	-190.50027	433.16692	1477.38843	-13.86095	399.00394	1503.88981	-375.02484	490.38856	1471.16756	-180.59874	483.54448	1468.57355	-228.59921	462.53738	1312.70080	57.05826	402.36681	1082.51411	36.21160	428.15979	1111.88671	109.41484	559.87462	996.95769	103.51902	626.36647	895.62318	106.27989	600.66666	877.34965	136.29020	344.70297	1341.23106	-463.57751	228.57260	1154.22972	-403.19416	239.21082	1169.77404	-483.02873	289.56509	1010.77054	-504.49988	271.31054	896.10198	-539.24824	230.16282	908.27393	-562.27014	393.96145	941.71909	-97.50179	409.78197	919.95232	-309.19434	406.21413	943.47584	-93.77819	408.81151	933.01853	-268.72351	
54	0.53000000	295.29490	535.54970	-73.73290	282.33104	404.10548	-92.20818	86.82620	118.68079	-146.20175	21.24537	96.28960	-200.73170	205.38580	28.36007	-96.88357	252.88214	55.24727	-163.99320	582.33228	526.56996	-360.47662	657.59628	452.40841	-345.19397	733.48606	100.43365	-328.73595	691.59128	53.08709	-267.95093	891.02484	95.13255	-362.02727	909.35110	136.41435	-299.40614	248.28878	299.40654	-122.02727	213.22982	414.59680	-57.28581	181.55360	303.03003	-69.73480	581.98238	414.69758	-379.52262	653.68712	316.56147	-389.85001	464.70866	732.35674	-57.86145	438.24612	625.05192	-80.73431	388.47660	605.69403	-38.77951	366.16731	743.36084	-1.65962	340.21654	632.94314	-32.35342	565.48088	785.94039	-379.43152	620.51172	660.51421	-362.77002	471.06592	737.46859	-417.46674	525.96231	612.66044	-393.87691	490.95578	1019.11586	-59.68535	290.22756	1053.51697	-160.81134	506.39712	1007.03568	-324.76047	291.82156	1047.86746	-258.21335	367.17694	1553.24231	-192.16640	446.18306	1475.88831	-15.01275	413.32333	1501.54324	-376.54144	504.07663	1469.47763	-181.59580	497.32932	1466.78607	-229.64795	474.71915	1311.04103	56.20814	414.66805	1080.89962	34.87320	439.64128	1110.31723	108.30154	571.91828	995.91723	103.26477	638.78676	894.98821	106.45824	612.94669	876.49627	136.22230	360.01283	1338.09102	-464.44103	243.73886	1151.33592	-403.85461	254.86100	1166.51805	-483.73953	304.53541	1007.26681	-504.19256	285.53396	892.41059	-538.47002	244.98036	904.91234	-562.05480	407.96085	939.48810	-97.93096	423.75306	918.67222	-309.71434	419.91901	941.56663	-94.17681	422.77897	931.41000	-269.28501	
55	0.54000000	306.83001	534.23162	-72.70133	291.46901	402.70805	-91.33896	89.13932	122.23118	-145.46221	22.97811	101.24431	-199.86420	205.78071	27.83273	-96.67518	253.79287	54.80566	-163.61872	598.94228	526.23059	-359.55752	672.58480	449.68778	-342.56583	737.20357	96.84877	-326.15126	692.84310	50.84099	-266.71004	895.26685	85.97932	-356.48499	913.95347	125.81646	-292.99986	254.99515	298.88360	-121.17499	222.56982	414.83901	-56.57986	188.29653	304.18450	-69.05148	596.55907	414.15105	-378.89003	665.45905	313.80258	-387.49498	476.92390	730.59090	-57.51419	450.14565	623.33743	-80.02273	400.45898	604.21958	-37.71071	378.32365	742.12765	-1.58166	352.03244	631.57476	-31.82671	582.51634	786.69413	-378.75224	638.34546	661.74671	-361.76483	488.40683	737.30034	-416.95929	544.09326	612.95981	-392.80113	505.12240	1016.87890	-59.95903	304.34375	1051.82230	-160.63225	520.91791	1006.43178	-325.28107	306.07865	1046.30002	-257.96722	380.75607	1551.86382	-193.89901	459.35051	1474.68117	-16.24947	427.66375	1499.42966	-378.09679	517.83153	1468.02685	-182.68194	511.17873	1465.24402	-230.78080	486.94507	1309.62911	55.30821	426.72108	1079.62583	33.38436	450.89152	1109.02252	107.04451	583.56476	994.96656	102.85459	650.66636	894.35849	106.48921	624.67078	875.67075	135.99810	375.48778	1335.15243	-465.34788	259.12940	1148.55327	-404.64579	270.80803	1163.35858	-484.56832	320.13934	1003.92789	-503.84445	300.59623	888.80208	-537.62237	260.76299	901.61654	-561.90046	422.41520	937.38974	-98.56905	438.15378	917.83027	-310.47038	433.96421	940.08922	-94.71331	437.08362	930.14779	-269.97367	
